<?xml version="1.0" encoding="UTF-8" standalone="no"?>
<!DOCTYPE svg PUBLIC "-//W3C//DTD SVG 1.1//EN"
 "http://www.w3.org/Graphics/SVG/1.1/DTD/svg11.dtd">
<!-- Generated by graphviz version 2.38.0 (20140413.2041)
 -->
<!-- Title: flux_diagram Pages: 1 -->
<svg width="689pt" height="900pt"
 viewBox="0.00 0.00 688.62 900.19" xmlns="http://www.w3.org/2000/svg" xmlns:xlink="http://www.w3.org/1999/xlink">
<g id="graph0" class="graph" transform="scale(1 1) rotate(0) translate(4 896.189)">
<title>flux_diagram</title>
<polygon fill="white" stroke="none" points="-4,4 -4,-896.189 684.619,-896.189 684.619,4 -4,4"/>
<text text-anchor="middle" x="340.31" y="-7" font-family="sans" font-size="10.00">t = 10^2.0 s</text>
<!-- H2 -->
<g id="node1" class="node"><title>H2</title>
<ellipse fill="none" stroke="black" stroke-width="9.811" cx="123" cy="-670" rx="27" ry="18"/>
<image xlink:href="/work/westgroup/ChrisB/_01_MeOH_repos/uncertainty_analysis/rmg_gua/gua_rms/species/H2.png" width="22px" height="17px" preserveAspectRatio="xMinYMin meet" x="112" y="-678.5"/>
<text text-anchor="middle" x="123" y="-666.3" font-family="Times,serif" font-size="14.00"> </text>
</g>
<!-- H* -->
<g id="node2" class="node"><title>H*</title>
<ellipse fill="none" stroke="black" stroke-width="0" cx="225.5" cy="-670" rx="27" ry="22.7556"/>
<image xlink:href="/work/westgroup/ChrisB/_01_MeOH_repos/uncertainty_analysis/rmg_gua/gua_rms/species/H*.png" width="16px" height="41px" preserveAspectRatio="xMinYMin meet" x="217.5" y="-690.5"/>
<text text-anchor="middle" x="225.5" y="-666.3" font-family="Times,serif" font-size="14.00"> </text>
</g>
<!-- H2&#45;&gt;H* -->
<g id="edge1" class="edge"><title>H2&#45;&gt;H*</title>
<path fill="none" stroke="#fde725" stroke-width="10" d="M150.143,-670C161.775,-670 175.665,-670 188.275,-670"/>
<polygon fill="#fde725" stroke="#fde725" stroke-width="10" points="188.488,-678.75 198.488,-670 188.488,-661.25 188.488,-678.75"/>
</g>
<!-- H2O* -->
<g id="node3" class="node"><title>H2O*</title>
<ellipse fill="none" stroke="black" stroke-width="0" cx="434.076" cy="-563" rx="27" ry="22.7556"/>
<image xlink:href="/work/westgroup/ChrisB/_01_MeOH_repos/uncertainty_analysis/rmg_gua/gua_rms/species/H2O*.png" width="31px" height="41px" preserveAspectRatio="xMinYMin meet" x="418.576" y="-583.5"/>
<text text-anchor="middle" x="434.076" y="-559.3" font-family="Times,serif" font-size="14.00"> </text>
</g>
<!-- H*&#45;&gt;H2O* -->
<g id="edge2" class="edge"><title>H*&#45;&gt;H2O*</title>
<path fill="none" stroke="#dae319" stroke-width="9.677" d="M250.846,-662.011C279.171,-652.26 326.918,-634.4 365,-613 379.334,-604.945 394.171,-594.355 406.32,-584.995"/>
<polygon fill="#dae319" stroke="#dae319" stroke-width="9.677" points="411.628,-591.593 414.263,-578.758 401.169,-578.274 411.628,-591.593"/>
</g>
<!-- HCO* -->
<g id="node4" class="node"><title>HCO*</title>
<ellipse fill="none" stroke="black" stroke-width="0" cx="434.076" cy="-269" rx="27" ry="27"/>
<image xlink:href="/work/westgroup/ChrisB/_01_MeOH_repos/uncertainty_analysis/rmg_gua/gua_rms/species/HCO*.png" width="35px" height="49px" preserveAspectRatio="xMinYMin meet" x="416.576" y="-293.5"/>
<text text-anchor="middle" x="434.076" y="-265.3" font-family="Times,serif" font-size="14.00"> </text>
</g>
<!-- H*&#45;&gt;HCO* -->
<g id="edge3" class="edge"><title>H*&#45;&gt;HCO*</title>
<path fill="none" stroke="#481b6d" stroke-width="4.566" d="M245.586,-654.785C250.698,-650.093 255.929,-644.661 260,-639 282.765,-607.347 274.632,-591.613 296,-559 321.002,-520.839 342.229,-522.533 365,-483 398.147,-425.451 417.323,-349.737 426.445,-305.513"/>
<polygon fill="#481b6d" stroke="#481b6d" stroke-width="4.566" points="430.402,-306.1 428.447,-295.51 422.567,-304.531 430.402,-306.1"/>
</g>
<!-- CH3X -->
<g id="node5" class="node"><title>CH3X</title>
<ellipse fill="none" stroke="black" stroke-width="0" cx="330.5" cy="-721" rx="27" ry="22.7556"/>
<image xlink:href="/work/westgroup/ChrisB/_01_MeOH_repos/uncertainty_analysis/rmg_gua/gua_rms/species/CH3X.png" width="30px" height="41px" preserveAspectRatio="xMinYMin meet" x="315.5" y="-741.5"/>
<text text-anchor="middle" x="330.5" y="-717.3" font-family="Times,serif" font-size="14.00"> </text>
</g>
<!-- H*&#45;&gt;CH3X -->
<g id="edge4" class="edge"><title>H*&#45;&gt;CH3X</title>
<path fill="none" stroke="#28ae80" stroke-width="7.807" d="M249.104,-681.192C263.325,-688.234 281.894,-697.428 297.602,-705.206"/>
<polygon fill="#28ae80" stroke="#28ae80" stroke-width="7.807" points="294.956,-711.518 306.949,-709.834 301.019,-699.275 294.956,-711.518"/>
</g>
<!-- HCOOH* -->
<g id="node7" class="node"><title>HCOOH*</title>
<ellipse fill="none" stroke="black" stroke-width="0" cx="536.385" cy="-269" rx="33.4697" ry="26.3269"/>
<image xlink:href="/work/westgroup/ChrisB/_01_MeOH_repos/uncertainty_analysis/rmg_gua/gua_rms/species/HCOOH*.png" width="61px" height="47px" preserveAspectRatio="xMinYMin meet" x="505.885" y="-292.5"/>
<text text-anchor="middle" x="536.385" y="-265.3" font-family="Times,serif" font-size="14.00"> </text>
</g>
<!-- HCO*&#45;&gt;HCOOH* -->
<g id="edge18" class="edge"><title>HCO*&#45;&gt;HCOOH*</title>
<path fill="none" stroke="#c8e020" stroke-width="9.5" d="M471.185,-269C481.566,-269 492.819,-269 502.963,-269"/>
<polygon fill="#c8e020" stroke="#c8e020" stroke-width="9.5" points="471.169,-260.688 461.169,-269 471.169,-277.313 471.169,-260.688"/>
</g>
<!-- CH2O* -->
<g id="node16" class="node"><title>CH2O*</title>
<ellipse fill="none" stroke="black" stroke-width="0" cx="536.385" cy="-115" rx="29" ry="20.5122"/>
<image xlink:href="/work/westgroup/ChrisB/_01_MeOH_repos/uncertainty_analysis/rmg_gua/gua_rms/species/CH2O*.png" width="52px" height="36px" preserveAspectRatio="xMinYMin meet" x="510.385" y="-133"/>
<text text-anchor="middle" x="536.385" y="-111.3" font-family="Times,serif" font-size="14.00"> </text>
</g>
<!-- HCO*&#45;&gt;CH2O* -->
<g id="edge19" class="edge"><title>HCO*&#45;&gt;CH2O*</title>
<path fill="none" stroke="#93d741" stroke-width="9.054" d="M453.477,-249.801C458.161,-244.533 463.031,-238.698 467.151,-233 488.206,-203.881 508.29,-167.792 521.147,-143.245"/>
<polygon fill="#93d741" stroke="#93d741" stroke-width="9.054" points="528.307,-146.646 525.87,-134.123 514.237,-139.36 528.307,-146.646"/>
</g>
<!-- CC.[Pt] -->
<g id="node13" class="node"><title>CC.[Pt]</title>
<ellipse fill="none" stroke="black" stroke-width="0" cx="434.076" cy="-721" rx="27" ry="18"/>
<image xlink:href="/work/westgroup/ChrisB/_01_MeOH_repos/uncertainty_analysis/rmg_gua/gua_rms/species/CC.[Pt].png" width="26px" height="30px" preserveAspectRatio="xMinYMin meet" x="421.076" y="-736"/>
<text text-anchor="middle" x="434.076" y="-717.3" font-family="Times,serif" font-size="14.00"> </text>
</g>
<!-- CH3X&#45;&gt;CC.[Pt] -->
<g id="edge37" class="edge"><title>CH3X&#45;&gt;CC.[Pt]</title>
<path fill="none" stroke="#3fbc73" stroke-width="8.187" d="M357.658,-721C369.625,-721 383.999,-721 396.973,-721"/>
<polygon fill="#3fbc73" stroke="#3fbc73" stroke-width="8.187" points="397.006,-728.164 407.006,-721 397.006,-713.836 397.006,-728.164"/>
</g>
<!-- X -->
<g id="node6" class="node"><title>X</title>
<ellipse fill="none" stroke="black" stroke-width="0" cx="123" cy="-491" rx="27" ry="18"/>
<image xlink:href="/work/westgroup/ChrisB/_01_MeOH_repos/uncertainty_analysis/rmg_gua/gua_rms/species/X.png" width="16px" height="17px" preserveAspectRatio="xMinYMin meet" x="115" y="-499.5"/>
<text text-anchor="middle" x="123" y="-487.3" font-family="Times,serif" font-size="14.00"> </text>
</g>
<!-- X&#45;&gt;H* -->
<g id="edge5" class="edge"><title>X&#45;&gt;H*</title>
<path fill="none" stroke="#e2e418" stroke-width="9.73" d="M129.408,-508.6C138.854,-537.599 160.322,-596.445 191,-639 193.166,-642.005 195.659,-644.946 198.286,-647.747"/>
<polygon fill="#e2e418" stroke="#e2e418" stroke-width="9.73" points="192.324,-653.825 205.423,-654.779 204.275,-641.696 192.324,-653.825"/>
</g>
<!-- X&#45;&gt;H2O* -->
<g id="edge6" class="edge"><title>X&#45;&gt;H2O*</title>
<path fill="none" stroke="#dde318" stroke-width="9.683" d="M158.59,-499.058C221.344,-513.677 352.562,-544.244 407.755,-557.101"/>
<polygon fill="#dde318" stroke="#dde318" stroke-width="9.683" points="160.432,-490.788 148.77,-496.77 156.587,-507.291 160.432,-490.788"/>
</g>
<!-- X&#45;&gt;HCO* -->
<g id="edge7" class="edge"><title>X&#45;&gt;HCO*</title>
<path fill="none" stroke="#4cc26c" stroke-width="8.336" d="M128.193,-462.933C136.998,-408.233 159.258,-290.637 191,-267 256.227,-218.428 361.152,-244.426 408.498,-260.015"/>
<polygon fill="#4cc26c" stroke="#4cc26c" stroke-width="8.336" points="120.96,-461.976 126.612,-472.987 135.371,-464.241 120.96,-461.976"/>
</g>
<!-- X&#45;&gt;CH3X -->
<g id="edge13" class="edge"><title>X&#45;&gt;CH3X</title>
<path fill="none" stroke="#460a5d" stroke-width="4.288" d="M127.204,-509.085C135.787,-555.413 160.718,-676.502 191,-702 219.233,-725.772 262.795,-728.006 293.513,-725.902"/>
<polygon fill="#460a5d" stroke="#460a5d" stroke-width="4.288" points="294.16,-729.612 303.796,-725.005 293.508,-722.136 294.16,-729.612"/>
</g>
<!-- X&#45;&gt;HCOOH* -->
<g id="edge8" class="edge"><title>X&#45;&gt;HCOOH*</title>
<path fill="none" stroke="#30698e" stroke-width="6.127" d="M130.252,-473.455C139.634,-449.763 159.669,-407.984 191,-386 293.97,-313.749 353.865,-378.673 467.151,-324 481.736,-316.961 495.989,-306.268 507.664,-296.176"/>
<polygon fill="#30698e" stroke="#30698e" stroke-width="6.127" points="511.429,-300 515.307,-289.337 504.28,-292.009 511.429,-300"/>
</g>
<!-- CO2* -->
<g id="node8" class="node"><title>CO2*</title>
<ellipse fill="none" stroke="black" stroke-width="0" cx="225.5" cy="-156" rx="29.8983" ry="26.3269"/>
<image xlink:href="/work/westgroup/ChrisB/_01_MeOH_repos/uncertainty_analysis/rmg_gua/gua_rms/species/CO2*.png" width="54px" height="47px" preserveAspectRatio="xMinYMin meet" x="198.5" y="-179.5"/>
<text text-anchor="middle" x="225.5" y="-152.3" font-family="Times,serif" font-size="14.00"> </text>
</g>
<!-- X&#45;&gt;CO2* -->
<g id="edge9" class="edge"><title>X&#45;&gt;CO2*</title>
<path fill="none" stroke="#bddf26" stroke-width="9.417" d="M125.17,-472.729C128.844,-424.883 142.944,-292.932 191,-196 193.15,-191.663 195.862,-187.394 198.808,-183.353"/>
<polygon fill="#bddf26" stroke="#bddf26" stroke-width="9.417" points="205.333,-188.386 205.078,-175.431 192.411,-178.159 205.333,-188.386"/>
</g>
<!-- HCOO* -->
<g id="node9" class="node"><title>HCOO*</title>
<ellipse fill="none" stroke="black" stroke-width="0" cx="330.5" cy="-176" rx="27" ry="38.3684"/>
<image xlink:href="/work/westgroup/ChrisB/_01_MeOH_repos/uncertainty_analysis/rmg_gua/gua_rms/species/HCOO*.png" width="35px" height="70px" preserveAspectRatio="xMinYMin meet" x="313" y="-211"/>
<text text-anchor="middle" x="330.5" y="-172.3" font-family="Times,serif" font-size="14.00"> </text>
</g>
<!-- X&#45;&gt;HCOO* -->
<g id="edge10" class="edge"><title>X&#45;&gt;HCOO*</title>
<path fill="none" stroke="#39558c" stroke-width="5.695" d="M123.542,-472.965C123.355,-427.249 129.056,-305.398 191,-234 217.246,-203.749 261.871,-188.918 293.363,-181.894"/>
<polygon fill="#39558c" stroke="#39558c" stroke-width="5.695" points="294.71,-186.704 303.494,-179.8 292.693,-176.944 294.71,-186.704"/>
</g>
<!-- O* -->
<g id="node10" class="node"><title>O*</title>
<ellipse fill="none" stroke="black" stroke-width="0" cx="225.5" cy="-607" rx="27" ry="22.7556"/>
<image xlink:href="/work/westgroup/ChrisB/_01_MeOH_repos/uncertainty_analysis/rmg_gua/gua_rms/species/O*.png" width="17px" height="41px" preserveAspectRatio="xMinYMin meet" x="217" y="-627.5"/>
<text text-anchor="middle" x="225.5" y="-603.3" font-family="Times,serif" font-size="14.00"> </text>
</g>
<!-- X&#45;&gt;O* -->
<g id="edge11" class="edge"><title>X&#45;&gt;O*</title>
<path fill="none" stroke="#aadc32" stroke-width="9.247" d="M143.417,-514.294C156.689,-530.117 174.75,-551.457 191,-570 196.597,-576.387 202.818,-583.306 208.365,-589.414"/>
<polygon fill="#aadc32" stroke="#aadc32" stroke-width="9.247" points="149.572,-509.041 136.948,-506.567 137.163,-519.429 149.572,-509.041"/>
</g>
<!-- CH3OH* -->
<g id="node11" class="node"><title>CH3OH*</title>
<ellipse fill="none" stroke="black" stroke-width="0" cx="225.5" cy="-862" rx="27" ry="20.5122"/>
<image xlink:href="/work/westgroup/ChrisB/_01_MeOH_repos/uncertainty_analysis/rmg_gua/gua_rms/species/CH3OH*.png" width="39px" height="36px" preserveAspectRatio="xMinYMin meet" x="206" y="-880"/>
<text text-anchor="middle" x="225.5" y="-858.3" font-family="Times,serif" font-size="14.00"> </text>
</g>
<!-- X&#45;&gt;CH3OH* -->
<g id="edge12" class="edge"><title>X&#45;&gt;CH3OH*</title>
<path fill="none" stroke="#471063" stroke-width="4.378" d="M129.732,-518.72C144.226,-588.531 181.832,-767.891 191,-794 197.104,-811.384 206.551,-830.091 213.859,-843.475"/>
<polygon fill="#471063" stroke="#471063" stroke-width="4.378" points="133.471,-517.884 127.69,-508.87 125.97,-519.44 133.471,-517.884"/>
</g>
<!-- OH* -->
<g id="node12" class="node"><title>OH*</title>
<ellipse fill="none" stroke="black" stroke-width="0" cx="330.5" cy="-451" rx="27" ry="22.7556"/>
<image xlink:href="/work/westgroup/ChrisB/_01_MeOH_repos/uncertainty_analysis/rmg_gua/gua_rms/species/OH*.png" width="24px" height="41px" preserveAspectRatio="xMinYMin meet" x="318.5" y="-471.5"/>
<text text-anchor="middle" x="330.5" y="-447.3" font-family="Times,serif" font-size="14.00"> </text>
</g>
<!-- X&#45;&gt;OH* -->
<g id="edge14" class="edge"><title>X&#45;&gt;OH*</title>
<path fill="none" stroke="#26818e" stroke-width="6.689" d="M159.075,-484.173C200.275,-476.153 267.619,-463.045 304.096,-455.945"/>
<polygon fill="#26818e" stroke="#26818e" stroke-width="6.689" points="157.896,-478.439 149.198,-486.095 160.132,-489.93 157.896,-478.439"/>
</g>
<!-- X&#45;&gt;CC.[Pt] -->
<g id="edge15" class="edge"><title>X&#45;&gt;CC.[Pt]</title>
<path fill="none" stroke="#3fbc73" stroke-width="8.184" d="M152.978,-507.705C187.14,-527.605 241.6,-560.034 260,-575 278.048,-589.68 278.818,-597.315 296,-613 336.501,-649.971 388.254,-688.651 415.102,-708.142"/>
<polygon fill="#3fbc73" stroke="#3fbc73" stroke-width="8.184" points="156.171,-501.278 143.927,-502.449 148.979,-513.663 156.171,-501.278"/>
</g>
<!-- COC=O.[Pt] -->
<g id="node14" class="node"><title>COC=O.[Pt]</title>
<ellipse fill="none" stroke="black" stroke-width="0" cx="643.119" cy="-400" rx="37.5" ry="27"/>
<image xlink:href="/work/westgroup/ChrisB/_01_MeOH_repos/uncertainty_analysis/rmg_gua/gua_rms/species/COC=O.[Pt].png" width="68px" height="49px" preserveAspectRatio="xMinYMin meet" x="609.119" y="-424.5"/>
<text text-anchor="middle" x="643.119" y="-396.3" font-family="Times,serif" font-size="14.00"> </text>
</g>
<!-- X&#45;&gt;COC=O.[Pt] -->
<g id="edge16" class="edge"><title>X&#45;&gt;COC=O.[Pt]</title>
<path fill="none" stroke="#28ae80" stroke-width="7.816" d="M141.002,-477.573C174.82,-452.259 253.804,-400 329.5,-400 329.5,-400 329.5,-400 435.076,-400 490.083,-400 553.311,-400 595.274,-400"/>
<polygon fill="#28ae80" stroke="#28ae80" stroke-width="7.816" points="595.467,-406.839 605.467,-400 595.467,-393.161 595.467,-406.839"/>
</g>
<!-- HCOOH*&#45;&gt;COC=O.[Pt] -->
<g id="edge20" class="edge"><title>HCOOH*&#45;&gt;COC=O.[Pt]</title>
<path fill="none" stroke="#28ae80" stroke-width="7.807" d="M557.952,-300.395C570.881,-319.402 588.336,-343.793 605.619,-364 609.9,-369.005 614.756,-374.125 619.497,-378.874"/>
<polygon fill="#28ae80" stroke="#28ae80" stroke-width="7.807" points="563.6,-296.552 552.347,-292.075 552.269,-304.185 563.6,-296.552"/>
</g>
<!-- CH3O2* -->
<g id="node17" class="node"><title>CH3O2*</title>
<ellipse fill="none" stroke="black" stroke-width="0" cx="643.119" cy="-245" rx="27" ry="38.3684"/>
<image xlink:href="/work/westgroup/ChrisB/_01_MeOH_repos/uncertainty_analysis/rmg_gua/gua_rms/species/CH3O2*.png" width="42px" height="70px" preserveAspectRatio="xMinYMin meet" x="622.119" y="-280"/>
<text text-anchor="middle" x="643.119" y="-241.3" font-family="Times,serif" font-size="14.00"> </text>
</g>
<!-- HCOOH*&#45;&gt;CH3O2* -->
<g id="edge21" class="edge"><title>HCOOH*&#45;&gt;CH3O2*</title>
<path fill="none" stroke="#46075a" stroke-width="4.25" d="M578.463,-259.587C591.18,-256.673 604.83,-253.545 616.215,-250.936"/>
<polygon fill="#46075a" stroke="#46075a" stroke-width="4.25" points="577.442,-256.006 568.525,-261.864 579.103,-263.255 577.442,-256.006"/>
</g>
<!-- CO2*&#45;&gt;HCOO* -->
<g id="edge24" class="edge"><title>CO2*&#45;&gt;HCOO*</title>
<path fill="none" stroke="#5ac864" stroke-width="8.513" d="M254.645,-161.465C266.677,-163.801 280.866,-166.557 293.638,-169.037"/>
<polygon fill="#5ac864" stroke="#5ac864" stroke-width="8.513" points="292.272,-176.359 303.509,-170.953 295.112,-161.735 292.272,-176.359"/>
</g>
<!-- HCOO*&#45;&gt;HCOOH* -->
<g id="edge27" class="edge"><title>HCOO*&#45;&gt;HCOOH*</title>
<path fill="none" stroke="#addc30" stroke-width="9.284" d="M356.464,-164.994C385.046,-154.178 432.392,-141.845 467.151,-161 495.103,-176.403 513.19,-208.614 523.671,-233.87"/>
<polygon fill="#addc30" stroke="#addc30" stroke-width="9.284" points="516.235,-237.159 527.448,-243.504 531.362,-231.229 516.235,-237.159"/>
</g>
<!-- COOH* -->
<g id="node22" class="node"><title>COOH*</title>
<ellipse fill="none" stroke="black" stroke-width="0" cx="434.076" cy="-197" rx="33.1514" ry="27"/>
<image xlink:href="/work/westgroup/ChrisB/_01_MeOH_repos/uncertainty_analysis/rmg_gua/gua_rms/species/COOH*.png" width="61px" height="49px" preserveAspectRatio="xMinYMin meet" x="403.576" y="-221.5"/>
<text text-anchor="middle" x="434.076" y="-193.3" font-family="Times,serif" font-size="14.00"> </text>
</g>
<!-- HCOO*&#45;&gt;COOH* -->
<g id="edge28" class="edge"><title>HCOO*&#45;&gt;COOH*</title>
<path fill="none" stroke="#38b977" stroke-width="8.101" d="M367.344,-183.41C378.584,-185.734 390.895,-188.279 401.793,-190.533"/>
<polygon fill="#38b977" stroke="#38b977" stroke-width="8.101" points="368.623,-176.437 357.395,-181.354 365.752,-190.32 368.623,-176.437"/>
</g>
<!-- O*&#45;&gt;CH3X -->
<g id="edge29" class="edge"><title>O*&#45;&gt;CH3X</title>
<path fill="none" stroke="#3fbc73" stroke-width="8.187" d="M251.938,-629.897C254.708,-632.579 257.446,-635.316 260,-638 280.082,-659.103 301.324,-685.079 314.96,-702.29"/>
<polygon fill="#3fbc73" stroke="#3fbc73" stroke-width="8.187" points="256.824,-624.659 244.635,-623.003 246.989,-635.077 256.824,-624.659"/>
</g>
<!-- O*&#45;&gt;OH* -->
<g id="edge30" class="edge"><title>O*&#45;&gt;OH*</title>
<path fill="none" stroke="#48c16e" stroke-width="8.295" d="M241.51,-577.508C254.616,-552.762 274.814,-516.924 296,-488 301.018,-481.149 307.103,-474.121 312.704,-468.056"/>
<polygon fill="#48c16e" stroke="#48c16e" stroke-width="8.295" points="235.056,-574.186 236.846,-586.412 247.916,-580.921 235.056,-574.186"/>
</g>
<!-- CH3OH*&#45;&gt;CH3X -->
<g id="edge34" class="edge"><title>CH3OH*&#45;&gt;CH3X</title>
<path fill="none" stroke="#60ca60" stroke-width="8.569" d="M243.305,-846.54C249.031,-840.754 255.194,-833.903 260,-827 280.896,-796.983 274.437,-782.541 296,-753 298.217,-749.963 300.741,-746.968 303.387,-744.101"/>
<polygon fill="#60ca60" stroke="#60ca60" stroke-width="8.569" points="308.839,-749.251 310.545,-736.87 298.182,-738.701 308.839,-749.251"/>
</g>
<!-- CH3OH*&#45;&gt;COC=O.[Pt] -->
<g id="edge36" class="edge"><title>CH3OH*&#45;&gt;COC=O.[Pt]</title>
<path fill="none" stroke="#481b6d" stroke-width="4.566" d="M260.973,-872.157C329.43,-889.997 483.335,-918.117 569.619,-840 631.029,-784.403 640.432,-514.289 641.864,-427.154"/>
<polygon fill="#481b6d" stroke="#481b6d" stroke-width="4.566" points="261.821,-868.248 251.127,-869.507 259.744,-875.964 261.821,-868.248"/>
</g>
<!-- OC[Pt] -->
<g id="node21" class="node"><title>OC[Pt]</title>
<ellipse fill="none" stroke="black" stroke-width="0" cx="643.119" cy="-328" rx="27" ry="27"/>
<image xlink:href="/work/westgroup/ChrisB/_01_MeOH_repos/uncertainty_analysis/rmg_gua/gua_rms/species/OC[Pt].png" width="44px" height="49px" preserveAspectRatio="xMinYMin meet" x="621.119" y="-352.5"/>
<text text-anchor="middle" x="643.119" y="-324.3" font-family="Times,serif" font-size="14.00"> </text>
</g>
<!-- CH3OH*&#45;&gt;OC[Pt] -->
<g id="edge35" class="edge"><title>CH3OH*&#45;&gt;OC[Pt]</title>
<path fill="none" stroke="#60ca60" stroke-width="8.569" d="M261.776,-855.084C314.446,-842.89 413.206,-812.495 467.151,-748 583.549,-608.838 507.841,-516.82 605.619,-364 610.032,-357.103 615.988,-350.513 621.806,-344.901"/>
<polygon fill="#60ca60" stroke="#60ca60" stroke-width="8.569" points="260.017,-847.794 251.884,-857.284 263.273,-862.432 260.017,-847.794"/>
</g>
<!-- OH*&#45;&gt;H2O* -->
<g id="edge39" class="edge"><title>OH*&#45;&gt;H2O*</title>
<path fill="none" stroke="#4ac16d" stroke-width="8.327" d="M354.693,-476.574C373.661,-497.488 400.004,-526.534 416.796,-545.05"/>
<polygon fill="#4ac16d" stroke="#4ac16d" stroke-width="8.327" points="359.935,-471.507 347.82,-468.995 349.141,-481.297 359.935,-471.507"/>
</g>
<!-- OH*&#45;&gt;HCO* -->
<g id="edge40" class="edge"><title>OH*&#45;&gt;HCO*</title>
<path fill="none" stroke="#46c06f" stroke-width="8.277" d="M342.758,-430.827C360.234,-399.515 394.051,-338.922 414.982,-301.419"/>
<polygon fill="#46c06f" stroke="#46c06f" stroke-width="8.277" points="421.459,-304.675 420.008,-292.413 408.811,-297.616 421.459,-304.675"/>
</g>
<!-- H2O -->
<g id="node15" class="node"><title>H2O</title>
<ellipse fill="none" stroke="black" stroke-width="10" cx="330.5" cy="-586" rx="27" ry="18"/>
<image xlink:href="/work/westgroup/ChrisB/_01_MeOH_repos/uncertainty_analysis/rmg_gua/gua_rms/species/H2O.png" width="31px" height="17px" preserveAspectRatio="xMinYMin meet" x="315" y="-594.5"/>
<text text-anchor="middle" x="330.5" y="-582.3" font-family="Times,serif" font-size="14.00"> </text>
</g>
<!-- H2O&#45;&gt;H2O* -->
<g id="edge17" class="edge"><title>H2O&#45;&gt;H2O*</title>
<path fill="none" stroke="#cde11d" stroke-width="9.555" d="M366.348,-578.109C379.955,-575.028 395.261,-571.562 407.778,-568.728"/>
<polygon fill="#cde11d" stroke="#cde11d" stroke-width="9.555" points="364.255,-570.011 356.348,-580.374 367.948,-586.319 364.255,-570.011"/>
</g>
<!-- CH3O* -->
<g id="node20" class="node"><title>CH3O*</title>
<ellipse fill="none" stroke="black" stroke-width="0" cx="643.119" cy="-91" rx="27" ry="24.0833"/>
<image xlink:href="/work/westgroup/ChrisB/_01_MeOH_repos/uncertainty_analysis/rmg_gua/gua_rms/species/CH3O*.png" width="29px" height="43px" preserveAspectRatio="xMinYMin meet" x="628.619" y="-112.5"/>
<text text-anchor="middle" x="643.119" y="-87.3" font-family="Times,serif" font-size="14.00"> </text>
</g>
<!-- CH2O*&#45;&gt;CH3O* -->
<g id="edge25" class="edge"><title>CH2O*&#45;&gt;CH3O*</title>
<path fill="none" stroke="#b2dd2d" stroke-width="9.314" d="M564.085,-108.882C577.155,-105.887 593.059,-102.242 607.091,-99.0268"/>
<polygon fill="#b2dd2d" stroke="#b2dd2d" stroke-width="9.314" points="608.983,-106.954 616.91,-96.7768 605.342,-91.0666 608.983,-106.954"/>
</g>
<!-- CH2O*&#45;&gt;OC[Pt] -->
<g id="edge26" class="edge"><title>CH2O*&#45;&gt;OC[Pt]</title>
<path fill="none" stroke="#60ca60" stroke-width="8.562" d="M554.995,-130.754C560.366,-136.361 565.843,-143.026 569.619,-150 600.621,-207.253 573.252,-235.508 605.619,-292 608.036,-296.219 611.084,-300.276 614.382,-304.049"/>
<polygon fill="#60ca60" stroke="#60ca60" stroke-width="8.562" points="609.057,-309.319 621.385,-311.354 619.873,-298.951 609.057,-309.319"/>
</g>
<!-- CO2 -->
<g id="node18" class="node"><title>CO2</title>
<ellipse fill="none" stroke="black" stroke-width="9.478" cx="27.5" cy="-92" rx="27.5" ry="18"/>
<image xlink:href="/work/westgroup/ChrisB/_01_MeOH_repos/uncertainty_analysis/rmg_gua/gua_rms/species/CO2.png" width="54px" height="27px" preserveAspectRatio="xMinYMin meet" x="0.5" y="-105.5"/>
<text text-anchor="middle" x="27.5" y="-88.3" font-family="Times,serif" font-size="14.00"> </text>
</g>
<!-- CO2&#45;&gt;CO2* -->
<g id="edge22" class="edge"><title>CO2&#45;&gt;CO2*</title>
<path fill="none" stroke="#bddf26" stroke-width="9.417" d="M52.5334,-99.8477C86.3641,-110.894 148.311,-131.122 187.89,-144.046"/>
<polygon fill="#bddf26" stroke="#bddf26" stroke-width="9.417" points="185.376,-151.893 197.44,-147.164 190.492,-136.227 185.376,-151.893"/>
</g>
<!-- CO* -->
<g id="node19" class="node"><title>CO*</title>
<ellipse fill="none" stroke="black" stroke-width="0" cx="123" cy="-46" rx="27" ry="27"/>
<image xlink:href="/work/westgroup/ChrisB/_01_MeOH_repos/uncertainty_analysis/rmg_gua/gua_rms/species/CO*.png" width="35px" height="49px" preserveAspectRatio="xMinYMin meet" x="105.5" y="-70.5"/>
<text text-anchor="middle" x="123" y="-42.3" font-family="Times,serif" font-size="14.00"> </text>
</g>
<!-- CO2&#45;&gt;CO* -->
<g id="edge23" class="edge"><title>CO2&#45;&gt;CO*</title>
<path fill="none" stroke="#73d056" stroke-width="8.745" d="M59.485,-76.756C72.1895,-70.5057 86.6532,-63.3899 98.4664,-57.578"/>
<polygon fill="#73d056" stroke="#73d056" stroke-width="8.745" points="55.7807,-70.0506 50.1858,-81.3311 62.5366,-83.7825 55.7807,-70.0506"/>
</g>
<!-- CO*&#45;&gt;HCO* -->
<g id="edge31" class="edge"><title>CO*&#45;&gt;HCO*</title>
<path fill="none" stroke="#93d741" stroke-width="9.05" d="M160.103,-47.1738C213.859,-51.0221 314.06,-66.6887 365,-129 395.958,-166.869 376.25,-190.811 401,-233 404.643,-239.209 409.458,-245.31 414.246,-250.673"/>
<polygon fill="#93d741" stroke="#93d741" stroke-width="9.05" points="160.467,-39.2626 149.999,-46.5514 159.493,-55.0701 160.467,-39.2626"/>
</g>
<!-- CO*&#45;&gt;CO2* -->
<g id="edge32" class="edge"><title>CO*&#45;&gt;CO2*</title>
<path fill="none" stroke="#a0da39" stroke-width="9.172" d="M148.123,-73.4562C160.774,-87.74 176.597,-105.425 191,-121 195.683,-126.064 200.803,-131.475 205.599,-136.491"/>
<polygon fill="#a0da39" stroke="#a0da39" stroke-width="9.172" points="154.085,-68.0841 141.45,-65.9057 142.058,-78.7135 154.085,-68.0841"/>
</g>
<!-- CO*&#45;&gt;CH2O* -->
<g id="edge33" class="edge"><title>CO*&#45;&gt;CH2O*</title>
<path fill="none" stroke="#8ed645" stroke-width="9.009" d="M150.159,-44.6683C177.606,-43.6272 221.964,-42.9525 260,-47 353.502,-56.9496 376.73,-64.2011 467.151,-90 478.39,-93.2068 490.431,-97.3665 501.221,-101.37"/>
<polygon fill="#8ed645" stroke="#8ed645" stroke-width="9.009" points="498.575,-108.797 510.719,-104.97 504.163,-94.0544 498.575,-108.797"/>
</g>
<!-- COOH*&#45;&gt;HCOOH* -->
<g id="edge42" class="edge"><title>COOH*&#45;&gt;HCOOH*</title>
<path fill="none" stroke="#3bbb75" stroke-width="8.136" d="M459.358,-214.429C472.418,-223.804 488.702,-235.492 502.845,-245.643"/>
<polygon fill="#3bbb75" stroke="#3bbb75" stroke-width="8.136" points="499.052,-251.684 511.327,-251.731 507.354,-240.117 499.052,-251.684"/>
</g>
<!-- CH4 -->
<g id="node23" class="node"><title>CH4</title>
<ellipse fill="none" stroke="black" stroke-width="7.86" cx="225.5" cy="-767" rx="27" ry="18"/>
<image xlink:href="/work/westgroup/ChrisB/_01_MeOH_repos/uncertainty_analysis/rmg_gua/gua_rms/species/CH4.png" width="30px" height="17px" preserveAspectRatio="xMinYMin meet" x="210.5" y="-775.5"/>
<text text-anchor="middle" x="225.5" y="-763.3" font-family="Times,serif" font-size="14.00"> </text>
</g>
<!-- CH4&#45;&gt;CH3X -->
<g id="edge38" class="edge"><title>CH4&#45;&gt;CH3X</title>
<path fill="none" stroke="#50c46a" stroke-width="8.384" d="M257.628,-753.098C273.264,-746.115 291.886,-737.799 306.256,-731.381"/>
<polygon fill="#50c46a" stroke="#50c46a" stroke-width="8.384" points="254.483,-746.468 248.344,-757.245 260.466,-759.865 254.483,-746.468"/>
</g>
<!-- CC -->
<g id="node24" class="node"><title>CC</title>
<ellipse fill="none" stroke="black" stroke-width="8.912" cx="330.5" cy="-780" rx="34.5" ry="18"/>
<image xlink:href="/work/westgroup/ChrisB/_01_MeOH_repos/uncertainty_analysis/rmg_gua/gua_rms/species/CC.png" width="68px" height="17px" preserveAspectRatio="xMinYMin meet" x="296.5" y="-788.5"/>
<text text-anchor="middle" x="330.5" y="-776.3" font-family="Times,serif" font-size="14.00"> </text>
</g>
<!-- CC&#45;&gt;CC.[Pt] -->
<g id="edge41" class="edge"><title>CC&#45;&gt;CC.[Pt]</title>
<path fill="none" stroke="#3fbc73" stroke-width="8.184" d="M363.004,-761.701C379.355,-752.204 398.837,-740.888 413.103,-732.601"/>
<polygon fill="#3fbc73" stroke="#3fbc73" stroke-width="8.184" points="359.346,-755.544 354.296,-766.759 366.539,-767.929 359.346,-755.544"/>
</g>
<!-- HCOOCH3 -->
<g id="node25" class="node"><title>HCOOCH3</title>
<ellipse fill="none" stroke="black" stroke-width="0" cx="225.5" cy="-94" rx="34.5" ry="18"/>
<image xlink:href="/work/westgroup/ChrisB/_01_MeOH_repos/uncertainty_analysis/rmg_gua/gua_rms/species/HCOOCH3.png" width="68px" height="24px" preserveAspectRatio="xMinYMin meet" x="191.5" y="-106"/>
<text text-anchor="middle" x="225.5" y="-90.3" font-family="Times,serif" font-size="14.00"> </text>
</g>
<!-- HCOOCH3&#45;&gt;HCOO* -->
<g id="edge44" class="edge"><title>HCOOCH3&#45;&gt;HCOO*</title>
<path fill="none" stroke="#433d84" stroke-width="5.194" d="M245.392,-109.04C260.165,-120.801 281.02,-137.404 298.267,-151.135"/>
<polygon fill="#433d84" stroke="#433d84" stroke-width="5.194" points="295.747,-154.938 306.401,-157.61 301.408,-147.826 295.747,-154.938"/>
</g>
<!-- HCOOCH3&#45;&gt;COC=O.[Pt] -->
<g id="edge45" class="edge"><title>HCOOCH3&#45;&gt;COC=O.[Pt]</title>
<path fill="none" stroke="#28ae80" stroke-width="7.816" d="M260.073,-96.4917C308.17,-101.151 398.456,-114.009 467.151,-148 520.44,-174.368 537.467,-183.988 569.619,-234 602.04,-284.43 575.248,-312.31 605.619,-364 607.288,-366.839 609.236,-369.61 611.349,-372.272"/>
<polygon fill="#28ae80" stroke="#28ae80" stroke-width="7.816" points="606.323,-376.913 618.065,-379.896 616.586,-367.871 606.323,-376.913"/>
</g>
<!-- HCOOCH3&#45;&gt;CH3O* -->
<g id="edge43" class="edge"><title>HCOOCH3&#45;&gt;CH3O*</title>
<path fill="none" stroke="#29af7f" stroke-width="7.835" d="M270.437,-90.9518C335.718,-86.8525 462.179,-80.5618 569.619,-85 585.015,-85.636 602.202,-87.0284 615.977,-88.3119"/>
<polygon fill="#29af7f" stroke="#29af7f" stroke-width="7.835" points="269.657,-84.132 260.117,-91.6138 270.535,-97.8151 269.657,-84.132"/>
</g>
<!-- HCOOH -->
<g id="node26" class="node"><title>HCOOH</title>
<ellipse fill="none" stroke="black" stroke-width="0" cx="225.5" cy="-294" rx="32" ry="18"/>
<image xlink:href="/work/westgroup/ChrisB/_01_MeOH_repos/uncertainty_analysis/rmg_gua/gua_rms/species/HCOOH.png" width="63px" height="22px" preserveAspectRatio="xMinYMin meet" x="194" y="-305"/>
<text text-anchor="middle" x="225.5" y="-290.3" font-family="Times,serif" font-size="14.00"> </text>
</g>
<!-- HCOOH&#45;&gt;HCO* -->
<g id="edge46" class="edge"><title>HCOOH&#45;&gt;HCO*</title>
<path fill="none" stroke="#31678e" stroke-width="6.079" d="M267.033,-289.095C308.533,-284.072 371.802,-276.415 407.05,-272.15"/>
<polygon fill="#31678e" stroke="#31678e" stroke-width="6.079" points="266.269,-283.829 256.981,-290.311 267.548,-294.39 266.269,-283.829"/>
</g>
<!-- HCOOH&#45;&gt;HCOOH* -->
<g id="edge47" class="edge"><title>HCOOH&#45;&gt;HCOOH*</title>
<path fill="none" stroke="#30698e" stroke-width="6.127" d="M255.547,-300.586C301.31,-309.797 392.655,-323.447 467.151,-305 479.017,-302.062 491.094,-296.643 501.725,-290.886"/>
<polygon fill="#30698e" stroke="#30698e" stroke-width="6.127" points="504.623,-295.405 510.652,-285.793 499.31,-286.092 504.623,-295.405"/>
</g>
<!-- HCOOH&#45;&gt;HCOO* -->
<g id="edge48" class="edge"><title>HCOOH&#45;&gt;HCOO*</title>
<path fill="none" stroke="#440154" stroke-width="4.146" d="M247.52,-269.919C265.455,-249.372 291.092,-220.001 308.904,-199.595"/>
<polygon fill="#440154" stroke="#440154" stroke-width="4.146" points="244.665,-267.673 240.822,-277.593 250.131,-272.445 244.665,-267.673"/>
</g>
<!-- CH3OH -->
<g id="node27" class="node"><title>CH3OH</title>
<ellipse fill="none" stroke="black" stroke-width="0" cx="123" cy="-837" rx="32" ry="18"/>
<image xlink:href="/work/westgroup/ChrisB/_01_MeOH_repos/uncertainty_analysis/rmg_gua/gua_rms/species/CH3OH.png" width="63px" height="17px" preserveAspectRatio="xMinYMin meet" x="91.5" y="-845.5"/>
<text text-anchor="middle" x="123" y="-833.3" font-family="Times,serif" font-size="14.00"> </text>
</g>
<!-- CH3OH&#45;&gt;CH3X -->
<g id="edge50" class="edge"><title>CH3OH&#45;&gt;CH3X</title>
<path fill="none" stroke="#471063" stroke-width="4.384" d="M154.127,-832.321C183.109,-826.752 227.235,-815.384 260,-794 280.307,-780.746 279.216,-770.503 296,-753 298.602,-750.286 301.372,-747.496 304.16,-744.749"/>
<polygon fill="#471063" stroke="#471063" stroke-width="4.384" points="306.969,-747.368 311.483,-737.656 301.631,-741.857 306.969,-747.368"/>
</g>
<!-- CH3OH&#45;&gt;CH3OH* -->
<g id="edge49" class="edge"><title>CH3OH&#45;&gt;CH3OH*</title>
<path fill="none" stroke="#471063" stroke-width="4.378" d="M162.286,-846.524C174.812,-849.64 188.391,-853.018 199.657,-855.82"/>
<polygon fill="#471063" stroke="#471063" stroke-width="4.378" points="163.159,-842.794 152.53,-844.097 161.31,-850.229 163.159,-842.794"/>
</g>
<!-- \n -->
<g id="node28" class="node"><title>\n</title>
<ellipse fill="none" stroke="black" cx="27.5" cy="-146" rx="27" ry="18"/>
</g>
</g>
</svg>
