<?xml version="1.0" encoding="UTF-8" standalone="no"?>
<!DOCTYPE svg PUBLIC "-//W3C//DTD SVG 1.1//EN"
 "http://www.w3.org/Graphics/SVG/1.1/DTD/svg11.dtd">
<!-- Generated by graphviz version 2.38.0 (20140413.2041)
 -->
<!-- Title: flux_diagram Pages: 1 -->
<svg width="640pt" height="1153pt"
 viewBox="0.00 0.00 640.47 1153.10" xmlns="http://www.w3.org/2000/svg" xmlns:xlink="http://www.w3.org/1999/xlink">
<g id="graph0" class="graph" transform="scale(1 1) rotate(0) translate(4 1149.1)">
<title>flux_diagram</title>
<polygon fill="white" stroke="none" points="-4,4 -4,-1149.1 636.468,-1149.1 636.468,4 -4,4"/>
<text text-anchor="middle" x="316.234" y="-7" font-family="sans" font-size="10.00">t = 10^2.0 s</text>
<!-- H2 -->
<g id="node1" class="node"><title>H2</title>
<ellipse fill="none" stroke="black" stroke-width="8.841" cx="117.5" cy="-1031.6" rx="27" ry="18"/>
<image xlink:href="/work/westgroup/ChrisB/_01_MeOH_repos/uncertainty_analysis/rmg_gua/rms/species/H2.png" width="22px" height="17px" preserveAspectRatio="xMinYMin meet" x="106.5" y="-1040.1"/>
<text text-anchor="middle" x="117.5" y="-1027.9" font-family="Times,serif" font-size="14.00"> </text>
</g>
<!-- H* -->
<g id="node2" class="node"><title>H*</title>
<ellipse fill="none" stroke="black" stroke-width="0" cx="213" cy="-1031.6" rx="27" ry="22.7556"/>
<image xlink:href="/work/westgroup/ChrisB/_01_MeOH_repos/uncertainty_analysis/rmg_gua/rms/species/H*.png" width="16px" height="41px" preserveAspectRatio="xMinYMin meet" x="205" y="-1052.1"/>
<text text-anchor="middle" x="213" y="-1027.9" font-family="Times,serif" font-size="14.00"> </text>
</g>
<!-- H2&#45;&gt;H* -->
<g id="edge1" class="edge"><title>H2&#45;&gt;H*</title>
<path fill="none" stroke="#fde725" stroke-width="10" d="M144.545,-1031.6C154.19,-1031.6 165.309,-1031.6 175.701,-1031.6"/>
<polygon fill="#fde725" stroke="#fde725" stroke-width="10" points="175.771,-1040.35 185.77,-1031.6 175.77,-1022.85 175.771,-1040.35"/>
</g>
<!-- H2O* -->
<g id="node3" class="node"><title>H2O*</title>
<ellipse fill="none" stroke="black" stroke-width="0" cx="509.234" cy="-1113.6" rx="27" ry="22.7556"/>
<image xlink:href="/work/westgroup/ChrisB/_01_MeOH_repos/uncertainty_analysis/rmg_gua/rms/species/H2O*.png" width="31px" height="41px" preserveAspectRatio="xMinYMin meet" x="493.734" y="-1134.1"/>
<text text-anchor="middle" x="509.234" y="-1109.9" font-family="Times,serif" font-size="14.00"> </text>
</g>
<!-- H*&#45;&gt;H2O* -->
<g id="edge2" class="edge"><title>H*&#45;&gt;H2O*</title>
<path fill="none" stroke="#dfe318" stroke-width="9.851" d="M234.238,-1045.67C265.218,-1066.27 327.026,-1103.68 386,-1117.6 414.569,-1124.34 447.93,-1122.64 472.575,-1119.64"/>
<polygon fill="#dfe318" stroke="#dfe318" stroke-width="9.851" points="473.801,-1128.17 482.564,-1118.3 471.505,-1111.09 473.801,-1128.17"/>
</g>
<!-- CO* -->
<g id="node4" class="node"><title>CO*</title>
<ellipse fill="none" stroke="black" stroke-width="0" cx="315.5" cy="-757.598" rx="27" ry="27"/>
<image xlink:href="/work/westgroup/ChrisB/_01_MeOH_repos/uncertainty_analysis/rmg_gua/rms/species/CO*.png" width="35px" height="49px" preserveAspectRatio="xMinYMin meet" x="298" y="-782.098"/>
<text text-anchor="middle" x="315.5" y="-753.898" font-family="Times,serif" font-size="14.00"> </text>
</g>
<!-- H*&#45;&gt;CO* -->
<g id="edge3" class="edge"><title>H*&#45;&gt;CO*</title>
<path fill="none" stroke="#7ad151" stroke-width="9.386" d="M216.755,-1008.92C222.854,-964.931 240.312,-866.011 281,-793.598 283.07,-789.914 285.592,-786.308 288.314,-782.889"/>
<polygon fill="#7ad151" stroke="#7ad151" stroke-width="9.386" points="294.55,-788.234 294.909,-775.299 282.151,-777.461 294.55,-788.234"/>
</g>
<!-- O* -->
<g id="node5" class="node"><title>O*</title>
<ellipse fill="none" stroke="black" stroke-width="0" cx="315.5" cy="-993.598" rx="27" ry="22.7556"/>
<image xlink:href="/work/westgroup/ChrisB/_01_MeOH_repos/uncertainty_analysis/rmg_gua/rms/species/O*.png" width="17px" height="41px" preserveAspectRatio="xMinYMin meet" x="307" y="-1014.1"/>
<text text-anchor="middle" x="315.5" y="-989.898" font-family="Times,serif" font-size="14.00"> </text>
</g>
<!-- H*&#45;&gt;O* -->
<g id="edge4" class="edge"><title>H*&#45;&gt;O*</title>
<path fill="none" stroke="#472f7d" stroke-width="7.384" d="M237.817,-1022.59C250.739,-1017.71 266.922,-1011.59 281.087,-1006.23"/>
<polygon fill="#472f7d" stroke="#472f7d" stroke-width="7.384" points="283.437,-1012.25 290.506,-1002.67 278.867,-1000.16 283.437,-1012.25"/>
</g>
<!-- CH2O* -->
<g id="node6" class="node"><title>CH2O*</title>
<ellipse fill="none" stroke="black" stroke-width="0" cx="509.234" cy="-864.598" rx="29" ry="20.5122"/>
<image xlink:href="/work/westgroup/ChrisB/_01_MeOH_repos/uncertainty_analysis/rmg_gua/rms/species/CH2O*.png" width="52px" height="36px" preserveAspectRatio="xMinYMin meet" x="483.234" y="-882.598"/>
<text text-anchor="middle" x="509.234" y="-860.898" font-family="Times,serif" font-size="14.00"> </text>
</g>
<!-- H*&#45;&gt;CH2O* -->
<g id="edge5" class="edge"><title>H*&#45;&gt;CH2O*</title>
<path fill="none" stroke="#20a386" stroke-width="8.729" d="M238.68,-1038.89C283.237,-1050.47 378.214,-1067.71 440,-1025.6 483.338,-996.061 499.258,-933.069 505.029,-895.227"/>
<polygon fill="#20a386" stroke="#20a386" stroke-width="8.729" points="512.602,-896.219 506.402,-885.269 497.47,-894.132 512.602,-896.219"/>
</g>
<!-- HCO* -->
<g id="node14" class="node"><title>HCO*</title>
<ellipse fill="none" stroke="black" stroke-width="0" cx="413" cy="-820.598" rx="27" ry="27"/>
<image xlink:href="/work/westgroup/ChrisB/_01_MeOH_repos/uncertainty_analysis/rmg_gua/rms/species/HCO*.png" width="35px" height="49px" preserveAspectRatio="xMinYMin meet" x="395.5" y="-845.098"/>
<text text-anchor="middle" x="413" y="-816.898" font-family="Times,serif" font-size="14.00"> </text>
</g>
<!-- CO*&#45;&gt;HCO* -->
<g id="edge22" class="edge"><title>CO*&#45;&gt;HCO*</title>
<path fill="none" stroke="#1f9a8a" stroke-width="8.611" d="M338.65,-772.21C351.306,-780.559 367.368,-791.155 381.234,-800.302"/>
<polygon fill="#1f9a8a" stroke="#1f9a8a" stroke-width="8.611" points="377.474,-806.848 389.97,-806.065 385.772,-794.269 377.474,-806.848"/>
</g>
<!-- CH3X -->
<g id="node18" class="node"><title>CH3X</title>
<ellipse fill="none" stroke="black" stroke-width="0" cx="413" cy="-634.598" rx="27" ry="22.7556"/>
<image xlink:href="/work/westgroup/ChrisB/_01_MeOH_repos/uncertainty_analysis/rmg_gua/rms/species/CH3X.png" width="30px" height="41px" preserveAspectRatio="xMinYMin meet" x="398" y="-655.098"/>
<text text-anchor="middle" x="413" y="-630.898" font-family="Times,serif" font-size="14.00"> </text>
</g>
<!-- CO*&#45;&gt;CH3X -->
<g id="edge21" class="edge"><title>CO*&#45;&gt;CH3X</title>
<path fill="none" stroke="#1fa287" stroke-width="8.713" d="M335.058,-738.583C340.055,-733.217 345.359,-727.287 350,-721.598 365.475,-702.629 381.474,-680.093 393.343,-662.71"/>
<polygon fill="#1fa287" stroke="#1fa287" stroke-width="8.713" points="399.855,-666.691 399.149,-654.136 387.229,-658.142 399.855,-666.691"/>
</g>
<!-- OH* -->
<g id="node8" class="node"><title>OH*</title>
<ellipse fill="none" stroke="black" stroke-width="0" cx="413" cy="-993.598" rx="27" ry="22.7556"/>
<image xlink:href="/work/westgroup/ChrisB/_01_MeOH_repos/uncertainty_analysis/rmg_gua/rms/species/OH*.png" width="24px" height="41px" preserveAspectRatio="xMinYMin meet" x="401" y="-1014.1"/>
<text text-anchor="middle" x="413" y="-989.898" font-family="Times,serif" font-size="14.00"> </text>
</g>
<!-- O*&#45;&gt;OH* -->
<g id="edge35" class="edge"><title>O*&#45;&gt;OH*</title>
<path fill="none" stroke="#287d8e" stroke-width="8.241" d="M352.817,-993.598C363.84,-993.598 375.728,-993.598 385.936,-993.598"/>
<polygon fill="#287d8e" stroke="#287d8e" stroke-width="8.241" points="352.596,-986.387 342.596,-993.598 352.596,-1000.81 352.596,-986.387"/>
</g>
<!-- OC[Pt] -->
<g id="node24" class="node"><title>OC[Pt]</title>
<ellipse fill="none" stroke="black" stroke-width="0" cx="605.468" cy="-824.598" rx="27" ry="27"/>
<image xlink:href="/work/westgroup/ChrisB/_01_MeOH_repos/uncertainty_analysis/rmg_gua/rms/species/OC[Pt].png" width="44px" height="49px" preserveAspectRatio="xMinYMin meet" x="583.468" y="-849.098"/>
<text text-anchor="middle" x="605.468" y="-820.898" font-family="Times,serif" font-size="14.00"> </text>
</g>
<!-- CH2O*&#45;&gt;OC[Pt] -->
<g id="edge36" class="edge"><title>CH2O*&#45;&gt;OC[Pt]</title>
<path fill="none" stroke="#22a884" stroke-width="8.786" d="M534.502,-854.297C545.603,-849.585 558.938,-843.924 570.975,-838.815"/>
<polygon fill="#22a884" stroke="#22a884" stroke-width="8.786" points="574.082,-845.848 580.283,-834.864 568.074,-831.695 574.082,-845.848"/>
</g>
<!-- X -->
<g id="node7" class="node"><title>X</title>
<ellipse fill="none" stroke="black" stroke-width="0" cx="117.5" cy="-691.598" rx="27" ry="18"/>
<image xlink:href="/work/westgroup/ChrisB/_01_MeOH_repos/uncertainty_analysis/rmg_gua/rms/species/X.png" width="16px" height="17px" preserveAspectRatio="xMinYMin meet" x="109.5" y="-700.098"/>
<text text-anchor="middle" x="117.5" y="-687.898" font-family="Times,serif" font-size="14.00"> </text>
</g>
<!-- X&#45;&gt;H* -->
<g id="edge6" class="edge"><title>X&#45;&gt;H*</title>
<path fill="none" stroke="#efe51c" stroke-width="9.918" d="M119.173,-709.65C121.607,-758.172 132.599,-894.503 181,-994.598 183.025,-998.785 185.629,-1002.9 188.465,-1006.77"/>
<polygon fill="#efe51c" stroke="#efe51c" stroke-width="9.918" points="181.884,-1012.43 194.913,-1014.79 195.416,-1001.56 181.884,-1012.43"/>
</g>
<!-- X&#45;&gt;H2O* -->
<g id="edge7" class="edge"><title>X&#45;&gt;H2O*</title>
<path fill="none" stroke="#e5e419" stroke-width="9.878" d="M119.793,-720.009C123.847,-797.471 138.663,-1010.14 181,-1063.6 255.102,-1157.17 321.97,-1152.35 440,-1134.6 455.076,-1132.33 471.416,-1127.39 484.326,-1122.88"/>
<polygon fill="#e5e419" stroke="#e5e419" stroke-width="9.878" points="128.404,-719.15 119.271,-709.596 111.139,-720.016 128.404,-719.15"/>
</g>
<!-- X&#45;&gt;O* -->
<g id="edge12" class="edge"><title>X&#45;&gt;O*</title>
<path fill="none" stroke="#2fb47c" stroke-width="8.94" d="M121.51,-719.64C128.611,-780.634 148.308,-922.614 181,-956.598 209.179,-985.89 258.333,-992.632 288.488,-993.832"/>
<polygon fill="#2fb47c" stroke="#2fb47c" stroke-width="8.94" points="129.268,-718.625 120.368,-709.571 113.723,-720.389 129.268,-718.625"/>
</g>
<!-- X&#45;&gt;CH2O* -->
<g id="edge13" class="edge"><title>X&#45;&gt;CH2O*</title>
<path fill="none" stroke="#2c718e" stroke-width="8.099" d="M126.516,-719.405C135.724,-747.088 153.243,-789.285 181,-816.598 216.14,-851.176 232.93,-853.659 281,-864.598 351.394,-880.618 437.264,-873.734 480.512,-868.506"/>
<polygon fill="#2c718e" stroke="#2c718e" stroke-width="8.099" points="133.172,-716.951 123.39,-709.567 119.665,-721.243 133.172,-716.951"/>
</g>
<!-- X&#45;&gt;OH* -->
<g id="edge8" class="edge"><title>X&#45;&gt;OH*</title>
<path fill="none" stroke="#c0df25" stroke-width="9.711" d="M117.774,-719.851C118.157,-767.729 126.172,-864.83 181,-918.598 236.336,-972.864 277.541,-934.092 350,-961.598 363.929,-966.886 378.786,-974.479 390.463,-980.943"/>
<polygon fill="#c0df25" stroke="#c0df25" stroke-width="9.711" points="126.272,-719.629 117.805,-709.603 109.277,-719.577 126.272,-719.629"/>
</g>
<!-- CO2* -->
<g id="node9" class="node"><title>CO2*</title>
<ellipse fill="none" stroke="black" stroke-width="0" cx="213" cy="-457.598" rx="29.8983" ry="26.3269"/>
<image xlink:href="/work/westgroup/ChrisB/_01_MeOH_repos/uncertainty_analysis/rmg_gua/rms/species/CO2*.png" width="54px" height="47px" preserveAspectRatio="xMinYMin meet" x="186" y="-481.098"/>
<text text-anchor="middle" x="213" y="-453.898" font-family="Times,serif" font-size="14.00"> </text>
</g>
<!-- X&#45;&gt;CO2* -->
<g id="edge9" class="edge"><title>X&#45;&gt;CO2*</title>
<path fill="none" stroke="#54c568" stroke-width="9.191" d="M122.167,-673.783C129.816,-638.785 149.431,-559.195 181,-498.598 183.098,-494.572 185.586,-490.526 188.226,-486.629"/>
<polygon fill="#54c568" stroke="#54c568" stroke-width="9.191" points="194.837,-491.211 194.159,-478.397 181.788,-481.808 194.837,-491.211"/>
</g>
<!-- COOH* -->
<g id="node10" class="node"><title>COOH*</title>
<ellipse fill="none" stroke="black" stroke-width="0" cx="315.5" cy="-363.598" rx="33.1514" ry="27"/>
<image xlink:href="/work/westgroup/ChrisB/_01_MeOH_repos/uncertainty_analysis/rmg_gua/rms/species/COOH*.png" width="61px" height="49px" preserveAspectRatio="xMinYMin meet" x="285" y="-388.098"/>
<text text-anchor="middle" x="315.5" y="-359.898" font-family="Times,serif" font-size="14.00"> </text>
</g>
<!-- X&#45;&gt;COOH* -->
<g id="edge10" class="edge"><title>X&#45;&gt;COOH*</title>
<path fill="none" stroke="#3bbb75" stroke-width="9.04" d="M122.543,-673.717C136.06,-614.004 178.941,-425.085 181,-422.598 204.155,-394.627 243.218,-379.483 273.124,-371.571"/>
<polygon fill="#3bbb75" stroke="#3bbb75" stroke-width="9.04" points="275.072,-379.237 282.879,-369.157 271.272,-363.881 275.072,-379.237"/>
</g>
<!-- CC(=O)O.[Pt] -->
<g id="node11" class="node"><title>CC(=O)O.[Pt]</title>
<ellipse fill="none" stroke="black" stroke-width="0" cx="213" cy="-58.598" rx="32" ry="39.6962"/>
<image xlink:href="/work/westgroup/ChrisB/_01_MeOH_repos/uncertainty_analysis/rmg_gua/rms/species/CC(=O)O.[Pt].png" width="58px" height="73px" preserveAspectRatio="xMinYMin meet" x="184" y="-95.098"/>
<text text-anchor="middle" x="213" y="-54.898" font-family="Times,serif" font-size="14.00"> </text>
</g>
<!-- X&#45;&gt;CC(=O)O.[Pt] -->
<g id="edge11" class="edge"><title>X&#45;&gt;CC(=O)O.[Pt]</title>
<path fill="none" stroke="#44bf70" stroke-width="9.092" d="M123.221,-673.891C129.135,-651.088 139.197,-610.158 145,-574.598 170.612,-417.645 157.852,-375.933 181,-218.598 186.575,-180.709 194.92,-138.158 201.548,-106.467"/>
<polygon fill="#44bf70" stroke="#44bf70" stroke-width="9.092" points="209.354,-108.006 203.634,-96.5791 193.786,-104.722 209.354,-108.006"/>
</g>
<!-- CH3OH* -->
<g id="node12" class="node"><title>CH3OH*</title>
<ellipse fill="none" stroke="black" stroke-width="0" cx="315.5" cy="-691.598" rx="27" ry="20.5122"/>
<image xlink:href="/work/westgroup/ChrisB/_01_MeOH_repos/uncertainty_analysis/rmg_gua/rms/species/CH3OH*.png" width="39px" height="36px" preserveAspectRatio="xMinYMin meet" x="296" y="-709.598"/>
<text text-anchor="middle" x="315.5" y="-687.898" font-family="Times,serif" font-size="14.00"> </text>
</g>
<!-- X&#45;&gt;CH3OH* -->
<g id="edge14" class="edge"><title>X&#45;&gt;CH3OH*</title>
<path fill="none" stroke="#1e9c89" stroke-width="8.636" d="M154.846,-691.598C193.61,-691.598 254.044,-691.598 288.365,-691.598"/>
<polygon fill="#1e9c89" stroke="#1e9c89" stroke-width="8.636" points="154.527,-684.042 144.527,-691.598 154.527,-699.155 154.527,-684.042"/>
</g>
<!-- CC.[Pt] -->
<g id="node13" class="node"><title>CC.[Pt]</title>
<ellipse fill="none" stroke="black" stroke-width="0" cx="413" cy="-208.598" rx="27" ry="18"/>
<image xlink:href="/work/westgroup/ChrisB/_01_MeOH_repos/uncertainty_analysis/rmg_gua/rms/species/CC.[Pt].png" width="26px" height="30px" preserveAspectRatio="xMinYMin meet" x="400" y="-223.598"/>
<text text-anchor="middle" x="413" y="-204.898" font-family="Times,serif" font-size="14.00"> </text>
</g>
<!-- X&#45;&gt;CC.[Pt] -->
<g id="edge15" class="edge"><title>X&#45;&gt;CC.[Pt]</title>
<path fill="none" stroke="#1f9e89" stroke-width="8.661" d="M120.508,-673.494C125.095,-641.043 139.384,-572.975 181,-536.598 239.353,-485.59 296.162,-549.351 350,-493.598 385.412,-456.926 403.474,-301.632 409.571,-237.002"/>
<polygon fill="#1f9e89" stroke="#1f9e89" stroke-width="8.661" points="417.146,-237.385 410.511,-226.736 402.053,-236.004 417.146,-237.385"/>
</g>
<!-- X&#45;&gt;HCO* -->
<g id="edge16" class="edge"><title>X&#45;&gt;HCO*</title>
<path fill="none" stroke="#482173" stroke-width="7.251" d="M134.999,-716.746C160.925,-753.683 215.109,-821.089 281,-847.598 317.192,-862.159 362.299,-845.98 389.034,-833.137"/>
<polygon fill="#482173" stroke="#482173" stroke-width="7.251" points="139.919,-712.703 129.026,-708.055 129.461,-719.89 139.919,-712.703"/>
</g>
<!-- HCOOH* -->
<g id="node15" class="node"><title>HCOOH*</title>
<ellipse fill="none" stroke="black" stroke-width="0" cx="509.234" cy="-630.598" rx="33.4697" ry="26.3269"/>
<image xlink:href="/work/westgroup/ChrisB/_01_MeOH_repos/uncertainty_analysis/rmg_gua/rms/species/HCOOH*.png" width="61px" height="47px" preserveAspectRatio="xMinYMin meet" x="478.734" y="-654.098"/>
<text text-anchor="middle" x="509.234" y="-626.898" font-family="Times,serif" font-size="14.00"> </text>
</g>
<!-- X&#45;&gt;HCOOH* -->
<g id="edge17" class="edge"><title>X&#45;&gt;HCOOH*</title>
<path fill="none" stroke="#3d4d8a" stroke-width="7.673" d="M121.932,-673.475C128.218,-646.004 144.451,-594.685 181,-572.598 275.131,-515.712 410.519,-575.703 473.528,-610.053"/>
<polygon fill="#3d4d8a" stroke="#3d4d8a" stroke-width="7.673" points="470.284,-615.931 482.286,-614.918 476.805,-604.193 470.284,-615.931"/>
</g>
<!-- CC=O.[Pt] -->
<g id="node16" class="node"><title>CC=O.[Pt]</title>
<ellipse fill="none" stroke="black" stroke-width="0" cx="213" cy="-250.598" rx="27" ry="22.7556"/>
<image xlink:href="/work/westgroup/ChrisB/_01_MeOH_repos/uncertainty_analysis/rmg_gua/rms/species/CC=O.[Pt].png" width="48px" height="41px" preserveAspectRatio="xMinYMin meet" x="189" y="-271.098"/>
<text text-anchor="middle" x="213" y="-246.898" font-family="Times,serif" font-size="14.00"> </text>
</g>
<!-- X&#45;&gt;CC=O.[Pt] -->
<g id="edge18" class="edge"><title>X&#45;&gt;CC=O.[Pt]</title>
<path fill="none" stroke="#482979" stroke-width="7.317" d="M125.124,-663.781C130.681,-640.117 138.697,-605.201 145,-574.598 162.689,-488.706 162.824,-466.388 181,-380.598 189.079,-342.465 199.905,-298.395 206.393,-272.603"/>
<polygon fill="#482979" stroke="#482979" stroke-width="7.317" points="118.824,-662.602 122.759,-673.805 131.286,-665.543 118.824,-662.602"/>
</g>
<!-- OH*&#45;&gt;H2O* -->
<g id="edge19" class="edge"><title>OH*&#45;&gt;H2O*</title>
<path fill="none" stroke="#6ccd5a" stroke-width="9.322" d="M434.926,-1020.25C452.745,-1042.94 477.887,-1074.95 493.613,-1094.98"/>
<polygon fill="#6ccd5a" stroke="#6ccd5a" stroke-width="9.322" points="441.315,-1015.18 428.724,-1012.35 428.485,-1025.25 441.315,-1015.18"/>
</g>
<!-- CO2*&#45;&gt;COOH* -->
<g id="edge30" class="edge"><title>CO2*&#45;&gt;COOH*</title>
<path fill="none" stroke="#54c568" stroke-width="9.195" d="M234.338,-438.576C249.026,-424.837 269.076,-406.084 285.449,-390.77"/>
<polygon fill="#54c568" stroke="#54c568" stroke-width="9.195" points="291.345,-396.272 293.152,-383.565 280.353,-384.52 291.345,-396.272"/>
</g>
<!-- HCOO* -->
<g id="node22" class="node"><title>HCOO*</title>
<ellipse fill="none" stroke="black" stroke-width="0" cx="315.5" cy="-446.598" rx="27" ry="38.3684"/>
<image xlink:href="/work/westgroup/ChrisB/_01_MeOH_repos/uncertainty_analysis/rmg_gua/rms/species/HCOO*.png" width="35px" height="70px" preserveAspectRatio="xMinYMin meet" x="298" y="-481.598"/>
<text text-anchor="middle" x="315.5" y="-442.898" font-family="Times,serif" font-size="14.00"> </text>
</g>
<!-- CO2*&#45;&gt;HCOO* -->
<g id="edge31" class="edge"><title>CO2*&#45;&gt;HCOO*</title>
<path fill="none" stroke="#471063" stroke-width="7.092" d="M242.53,-454.475C253.662,-453.257 266.554,-451.846 278.325,-450.557"/>
<polygon fill="#471063" stroke="#471063" stroke-width="7.092" points="279.043,-456.722 288.308,-449.465 277.692,-444.384 279.043,-456.722"/>
</g>
<!-- COOH*&#45;&gt;HCOOH* -->
<g id="edge32" class="edge"><title>COOH*&#45;&gt;HCOOH*</title>
<path fill="none" stroke="#440154" stroke-width="6.973" d="M336.882,-384.45C341.346,-389.302 345.945,-394.532 350,-399.598 404.252,-467.375 459.819,-553.011 488.462,-598.601"/>
<polygon fill="#440154" stroke="#440154" stroke-width="6.973" points="483.347,-601.928 493.824,-607.168 493.691,-595.454 483.347,-601.928"/>
</g>
<!-- CH3OH*&#45;&gt;CH3X -->
<g id="edge37" class="edge"><title>CH3OH*&#45;&gt;CH3X</title>
<path fill="none" stroke="#443983" stroke-width="7.473" d="M337.222,-679.23C350.306,-671.421 367.426,-661.202 381.983,-652.514"/>
<polygon fill="#443983" stroke="#443983" stroke-width="7.473" points="385.422,-658.077 390.657,-647.337 378.719,-646.847 385.422,-658.077"/>
</g>
<!-- CH3OH*&#45;&gt;OC[Pt] -->
<g id="edge38" class="edge"><title>CH3OH*&#45;&gt;OC[Pt]</title>
<path fill="none" stroke="#21a585" stroke-width="8.756" d="M348.196,-706.237C406.414,-733.125 529.131,-789.803 580.772,-813.654"/>
<polygon fill="#21a585" stroke="#21a585" stroke-width="8.756" points="351.387,-699.272 339.096,-702.034 344.962,-713.183 351.387,-699.272"/>
</g>
<!-- HCO*&#45;&gt;CH2O* -->
<g id="edge42" class="edge"><title>HCO*&#45;&gt;CH2O*</title>
<path fill="none" stroke="#297a8e" stroke-width="8.204" d="M437.779,-831.701C449.163,-837.016 462.978,-843.467 475.348,-849.243"/>
<polygon fill="#297a8e" stroke="#297a8e" stroke-width="8.204" points="472.364,-855.772 484.462,-853.498 478.439,-842.763 472.364,-855.772"/>
</g>
<!-- HCO*&#45;&gt;HCOOH* -->
<g id="edge43" class="edge"><title>HCO*&#45;&gt;HCOOH*</title>
<path fill="none" stroke="#482878" stroke-width="7.314" d="M430.45,-787.43C449.246,-749.532 479.555,-688.422 496.248,-654.766"/>
<polygon fill="#482878" stroke="#482878" stroke-width="7.314" points="424.645,-784.732 425.935,-796.534 436.111,-790.419 424.645,-784.732"/>
</g>
<!-- CH3O2* -->
<g id="node27" class="node"><title>CH3O2*</title>
<ellipse fill="none" stroke="black" stroke-width="0" cx="605.468" cy="-630.598" rx="27" ry="38.3684"/>
<image xlink:href="/work/westgroup/ChrisB/_01_MeOH_repos/uncertainty_analysis/rmg_gua/rms/species/CH3O2*.png" width="42px" height="70px" preserveAspectRatio="xMinYMin meet" x="584.468" y="-665.598"/>
<text text-anchor="middle" x="605.468" y="-626.898" font-family="Times,serif" font-size="14.00"> </text>
</g>
<!-- HCOOH*&#45;&gt;CH3O2* -->
<g id="edge44" class="edge"><title>HCOOH*&#45;&gt;CH3O2*</title>
<path fill="none" stroke="#46307e" stroke-width="7.387" d="M542.664,-630.598C550.825,-630.598 559.638,-630.598 567.983,-630.598"/>
<polygon fill="#46307e" stroke="#46307e" stroke-width="7.387" points="568.217,-637.062 578.217,-630.598 568.217,-624.134 568.217,-637.062"/>
</g>
<!-- CCO[Pt] -->
<g id="node29" class="node"><title>CCO[Pt]</title>
<ellipse fill="none" stroke="black" stroke-width="0" cx="315.5" cy="-244.598" rx="27" ry="35.5"/>
<image xlink:href="/work/westgroup/ChrisB/_01_MeOH_repos/uncertainty_analysis/rmg_gua/rms/species/CCO[Pt].png" width="29px" height="64px" preserveAspectRatio="xMinYMin meet" x="301" y="-276.598"/>
<text text-anchor="middle" x="315.5" y="-240.898" font-family="Times,serif" font-size="14.00"> </text>
</g>
<!-- CC=O.[Pt]&#45;&gt;CCO[Pt] -->
<g id="edge47" class="edge"><title>CC=O.[Pt]&#45;&gt;CCO[Pt]</title>
<path fill="none" stroke="#472c7a" stroke-width="7.34" d="M240.143,-249.037C251.775,-248.343 265.665,-247.513 278.275,-246.761"/>
<polygon fill="#472c7a" stroke="#472c7a" stroke-width="7.34" points="278.889,-253.158 288.488,-246.151 278.123,-240.336 278.889,-253.158"/>
</g>
<!-- CH4 -->
<g id="node17" class="node"><title>CH4</title>
<ellipse fill="none" stroke="black" stroke-width="8.792" cx="315.5" cy="-634.598" rx="27" ry="18"/>
<image xlink:href="/work/westgroup/ChrisB/_01_MeOH_repos/uncertainty_analysis/rmg_gua/rms/species/CH4.png" width="30px" height="17px" preserveAspectRatio="xMinYMin meet" x="300.5" y="-643.098"/>
<text text-anchor="middle" x="315.5" y="-630.898" font-family="Times,serif" font-size="14.00"> </text>
</g>
<!-- CH4&#45;&gt;CH3X -->
<g id="edge20" class="edge"><title>CH4&#45;&gt;CH3X</title>
<path fill="none" stroke="#98d83e" stroke-width="9.534" d="M352.817,-634.598C363.84,-634.598 375.728,-634.598 385.936,-634.598"/>
<polygon fill="#98d83e" stroke="#98d83e" stroke-width="9.534" points="352.596,-626.256 342.596,-634.598 352.596,-642.94 352.596,-626.256"/>
</g>
<!-- CC(=O)O -->
<g id="node19" class="node"><title>CC(=O)O</title>
<ellipse fill="none" stroke="black" stroke-width="0" cx="27" cy="-126.598" rx="27" ry="27"/>
<image xlink:href="/work/westgroup/ChrisB/_01_MeOH_repos/uncertainty_analysis/rmg_gua/rms/species/CC(=O)O.png" width="48px" height="49px" preserveAspectRatio="xMinYMin meet" x="3" y="-151.098"/>
<text text-anchor="middle" x="27" y="-122.898" font-family="Times,serif" font-size="14.00"> </text>
</g>
<!-- CC(=O)O&#45;&gt;COOH* -->
<g id="edge24" class="edge"><title>CC(=O)O&#45;&gt;COOH*</title>
<path fill="none" stroke="#1f948c" stroke-width="8.539" d="M44.8024,-147.092C48.2158,-151.962 51.5163,-157.291 54,-162.598 81.4157,-221.177 44.5228,-257.61 90,-303.598 138.333,-352.474 221.774,-362.868 272.181,-364.354"/>
<polygon fill="#1f948c" stroke="#1f948c" stroke-width="8.539" points="272.272,-371.829 282.411,-364.547 272.554,-356.888 272.272,-371.829"/>
</g>
<!-- CC(=O)O&#45;&gt;CC(=O)O.[Pt] -->
<g id="edge25" class="edge"><title>CC(=O)O&#45;&gt;CC(=O)O.[Pt]</title>
<path fill="none" stroke="#44bf70" stroke-width="9.092" d="M49.9254,-111.915C61.4652,-104.699 76.0777,-96.3419 90,-90.598 116.213,-79.7832 147.125,-71.7214 171.274,-66.3947"/>
<polygon fill="#44bf70" stroke="#44bf70" stroke-width="9.092" points="173.059,-74.1485 181.176,-64.2792 169.735,-58.5886 173.059,-74.1485"/>
</g>
<!-- CC(=O)[Pt] -->
<g id="node20" class="node"><title>CC(=O)[Pt]</title>
<ellipse fill="none" stroke="black" stroke-width="0" cx="117.5" cy="-126.598" rx="27" ry="27"/>
<image xlink:href="/work/westgroup/ChrisB/_01_MeOH_repos/uncertainty_analysis/rmg_gua/rms/species/CC(=O)[Pt].png" width="48px" height="49px" preserveAspectRatio="xMinYMin meet" x="93.5" y="-151.098"/>
<text text-anchor="middle" x="117.5" y="-122.898" font-family="Times,serif" font-size="14.00"> </text>
</g>
<!-- CC(=O)O&#45;&gt;CC(=O)[Pt] -->
<g id="edge23" class="edge"><title>CC(=O)O&#45;&gt;CC(=O)[Pt]</title>
<path fill="none" stroke="#75d054" stroke-width="9.368" d="M64.0881,-126.598C72.8659,-126.598 82.0876,-126.598 90.3063,-126.598"/>
<polygon fill="#75d054" stroke="#75d054" stroke-width="9.368" points="64.0743,-118.401 54.0743,-126.598 64.0742,-134.795 64.0743,-118.401"/>
</g>
<!-- CC(=O)[Pt]&#45;&gt;CC(=O)O.[Pt] -->
<g id="edge26" class="edge"><title>CC(=O)[Pt]&#45;&gt;CC(=O)O.[Pt]</title>
<path fill="none" stroke="#42be71" stroke-width="9.082" d="M147.953,-105.178C159.752,-96.5967 173.261,-86.7715 184.822,-78.3635"/>
<polygon fill="#42be71" stroke="#42be71" stroke-width="9.082" points="143.13,-98.8591 139.717,-111.168 152.478,-111.713 143.13,-98.8591"/>
</g>
<!-- CC(=O)[Pt]&#45;&gt;CC.[Pt] -->
<g id="edge27" class="edge"><title>CC(=O)[Pt]&#45;&gt;CC.[Pt]</title>
<path fill="none" stroke="#1fa287" stroke-width="8.713" d="M154.342,-122.102C201.583,-117.788 286.16,-115.727 350,-145.598 371.822,-155.809 390.197,-177.19 401.145,-192.201"/>
<polygon fill="#1fa287" stroke="#1fa287" stroke-width="8.713" points="153.481,-114.526 144.289,-123.107 154.998,-129.698 153.481,-114.526"/>
</g>
<!-- CC(=O)[Pt]&#45;&gt;CC=O.[Pt] -->
<g id="edge28" class="edge"><title>CC(=O)[Pt]&#45;&gt;CC=O.[Pt]</title>
<path fill="none" stroke="#404688" stroke-width="7.61" d="M134.573,-147.914C150.315,-168.791 174.364,-200.685 191.479,-223.383"/>
<polygon fill="#404688" stroke="#404688" stroke-width="7.61" points="186.33,-227.614 197.667,-231.59 196.963,-219.596 186.33,-227.614"/>
</g>
<!-- H2O -->
<g id="node21" class="node"><title>H2O</title>
<ellipse fill="none" stroke="black" stroke-width="10" cx="413" cy="-1090.6" rx="27" ry="18"/>
<image xlink:href="/work/westgroup/ChrisB/_01_MeOH_repos/uncertainty_analysis/rmg_gua/rms/species/H2O.png" width="31px" height="17px" preserveAspectRatio="xMinYMin meet" x="397.5" y="-1099.1"/>
<text text-anchor="middle" x="413" y="-1086.9" font-family="Times,serif" font-size="14.00"> </text>
</g>
<!-- H2O&#45;&gt;H2O* -->
<g id="edge29" class="edge"><title>H2O&#45;&gt;H2O*</title>
<path fill="none" stroke="#69cd5b" stroke-width="9.308" d="M448.797,-1099.09C460.132,-1101.86 472.489,-1104.87 482.985,-1107.44"/>
<polygon fill="#69cd5b" stroke="#69cd5b" stroke-width="9.308" points="450.405,-1091.1 438.759,-1096.64 446.542,-1106.92 450.405,-1091.1"/>
</g>
<!-- CO2 -->
<g id="node23" class="node"><title>CO2</title>
<ellipse fill="none" stroke="black" stroke-width="9.109" cx="117.5" cy="-547.598" rx="27.5" ry="18"/>
<image xlink:href="/work/westgroup/ChrisB/_01_MeOH_repos/uncertainty_analysis/rmg_gua/rms/species/CO2.png" width="54px" height="27px" preserveAspectRatio="xMinYMin meet" x="90.5" y="-561.098"/>
<text text-anchor="middle" x="117.5" y="-543.898" font-family="Times,serif" font-size="14.00"> </text>
</g>
<!-- CO2&#45;&gt;CO* -->
<g id="edge33" class="edge"><title>CO2&#45;&gt;CO*</title>
<path fill="none" stroke="#228d8d" stroke-width="8.443" d="M136.612,-572.092C148.701,-588.029 165.219,-609.038 181,-626.598 219.201,-669.106 267.975,-715.083 294.728,-739.668"/>
<polygon fill="#228d8d" stroke="#228d8d" stroke-width="8.443" points="142.3,-567.364 130.385,-563.814 130.493,-576.246 142.3,-567.364"/>
</g>
<!-- CO2&#45;&gt;CO2* -->
<g id="edge34" class="edge"><title>CO2&#45;&gt;CO2*</title>
<path fill="none" stroke="#54c568" stroke-width="9.191" d="M133.94,-532.736C147.793,-519.401 168.436,-499.531 185.015,-483.573"/>
<polygon fill="#54c568" stroke="#54c568" stroke-width="9.191" points="190.679,-489.283 192.307,-476.554 179.525,-477.695 190.679,-489.283"/>
</g>
<!-- CC -->
<g id="node25" class="node"><title>CC</title>
<ellipse fill="none" stroke="black" stroke-width="8.651" cx="315.5" cy="-172.598" rx="34.5" ry="18"/>
<image xlink:href="/work/westgroup/ChrisB/_01_MeOH_repos/uncertainty_analysis/rmg_gua/rms/species/CC.png" width="68px" height="17px" preserveAspectRatio="xMinYMin meet" x="281.5" y="-181.098"/>
<text text-anchor="middle" x="315.5" y="-168.898" font-family="Times,serif" font-size="14.00"> </text>
</g>
<!-- CC&#45;&gt;CC.[Pt] -->
<g id="edge39" class="edge"><title>CC&#45;&gt;CC.[Pt]</title>
<path fill="none" stroke="#1f9e89" stroke-width="8.661" d="M343.866,-182.914C355.062,-187.135 368.098,-192.049 379.753,-196.442"/>
<polygon fill="#1f9e89" stroke="#1f9e89" stroke-width="8.661" points="377.116,-203.547 389.146,-199.983 382.462,-189.364 377.116,-203.547"/>
</g>
<!-- CH3OH -->
<g id="node26" class="node"><title>CH3OH</title>
<ellipse fill="none" stroke="black" stroke-width="0.795" cx="213" cy="-599.598" rx="32" ry="18"/>
<image xlink:href="/work/westgroup/ChrisB/_01_MeOH_repos/uncertainty_analysis/rmg_gua/rms/species/CH3OH.png" width="63px" height="17px" preserveAspectRatio="xMinYMin meet" x="181.5" y="-608.098"/>
<text text-anchor="middle" x="213" y="-595.898" font-family="Times,serif" font-size="14.00"> </text>
</g>
<!-- CH3OH&#45;&gt;CH3OH* -->
<g id="edge41" class="edge"><title>CH3OH&#45;&gt;CH3OH*</title>
<path fill="none" stroke="#1e9c89" stroke-width="8.636" d="M237.926,-621.914C250.669,-633.756 266.636,-648.522 281,-661.598 286.196,-666.328 291.879,-671.44 297.064,-676.081"/>
<polygon fill="#1e9c89" stroke="#1e9c89" stroke-width="8.636" points="242.92,-616.24 230.451,-614.961 232.626,-627.305 242.92,-616.24"/>
</g>
<!-- CH3OH&#45;&gt;CH3X -->
<g id="edge40" class="edge"><title>CH3OH&#45;&gt;CH3X</title>
<path fill="none" stroke="#1e9c89" stroke-width="8.636" d="M244.967,-598.357C272.828,-597.96 314.69,-599.154 350,-607.598 360.362,-610.076 371.169,-614.19 380.803,-618.469"/>
<polygon fill="#1e9c89" stroke="#1e9c89" stroke-width="8.636" points="377.73,-625.374 389.986,-622.748 384.114,-611.675 377.73,-625.374"/>
</g>
<!-- HCOOH -->
<g id="node28" class="node"><title>HCOOH</title>
<ellipse fill="none" stroke="black" stroke-width="0" cx="315.5" cy="-820.598" rx="32" ry="18"/>
<image xlink:href="/work/westgroup/ChrisB/_01_MeOH_repos/uncertainty_analysis/rmg_gua/rms/species/HCOOH.png" width="63px" height="22px" preserveAspectRatio="xMinYMin meet" x="284" y="-831.598"/>
<text text-anchor="middle" x="315.5" y="-816.898" font-family="Times,serif" font-size="14.00"> </text>
</g>
<!-- HCOOH&#45;&gt;HCO* -->
<g id="edge45" class="edge"><title>HCOOH&#45;&gt;HCO*</title>
<path fill="none" stroke="#3e4c8a" stroke-width="7.661" d="M357.693,-820.598C367.279,-820.598 377.225,-820.598 385.946,-820.598"/>
<polygon fill="#3e4c8a" stroke="#3e4c8a" stroke-width="7.661" points="357.506,-813.895 347.506,-820.598 357.506,-827.301 357.506,-813.895"/>
</g>
<!-- HCOOH&#45;&gt;HCOOH* -->
<g id="edge46" class="edge"><title>HCOOH&#45;&gt;HCOOH*</title>
<path fill="none" stroke="#3e4c8a" stroke-width="7.661" d="M335.267,-806.137C340.163,-802.186 345.363,-797.826 350,-793.598 398.969,-748.947 451.825,-692.688 482.368,-659.295"/>
<polygon fill="#3e4c8a" stroke="#3e4c8a" stroke-width="7.661" points="487.488,-663.629 489.27,-651.723 477.58,-654.598 487.488,-663.629"/>
</g>
<!-- CCO[Pt]&#45;&gt;CC.[Pt] -->
<g id="edge48" class="edge"><title>CCO[Pt]&#45;&gt;CC.[Pt]</title>
<path fill="none" stroke="#481f70" stroke-width="7.228" d="M341.592,-235.139C353.191,-230.767 367.112,-225.519 379.503,-220.848"/>
<polygon fill="#481f70" stroke="#481f70" stroke-width="7.228" points="381.912,-226.699 389.038,-217.254 377.45,-214.863 381.912,-226.699"/>
</g>
<!-- CC=O -->
<g id="node30" class="node"><title>CC=O</title>
<ellipse fill="none" stroke="black" stroke-width="0" cx="117.5" cy="-276.598" rx="27" ry="18"/>
<image xlink:href="/work/westgroup/ChrisB/_01_MeOH_repos/uncertainty_analysis/rmg_gua/rms/species/CC=O.png" width="48px" height="22px" preserveAspectRatio="xMinYMin meet" x="93.5" y="-287.598"/>
<text text-anchor="middle" x="117.5" y="-272.898" font-family="Times,serif" font-size="14.00"> </text>
</g>
<!-- CC=O&#45;&gt;CC=O.[Pt] -->
<g id="edge50" class="edge"><title>CC=O&#45;&gt;CC=O.[Pt]</title>
<path fill="none" stroke="#482979" stroke-width="7.317" d="M152.292,-267.201C163.764,-264.011 176.366,-260.507 187.024,-257.543"/>
<polygon fill="#482979" stroke="#482979" stroke-width="7.317" points="150.498,-261.055 142.579,-269.902 153.928,-273.391 150.498,-261.055"/>
</g>
<!-- CC=O&#45;&gt;CH3X -->
<g id="edge49" class="edge"><title>CC=O&#45;&gt;CH3X</title>
<path fill="none" stroke="#482979" stroke-width="7.317" d="M144.367,-278.79C198.576,-283.921 321.444,-298.536 350,-327.598 387.971,-366.241 404.395,-530.738 409.809,-601.745"/>
<polygon fill="#482979" stroke="#482979" stroke-width="7.317" points="403.438,-602.409 410.558,-611.912 416.209,-601.469 403.438,-602.409"/>
</g>
<!-- \n -->
<g id="node31" class="node"><title>\n</title>
<ellipse fill="none" stroke="black" cx="27" cy="-189.598" rx="27" ry="18"/>
</g>
</g>
</svg>
